<svg xmlns="http://www.w3.org/2000/svg" xmlns:xlink="http://www.w3.org/1999/xlink" x="0" y="0" width="702" height="302" style="
        width:702px;
        height:302px;
        background: #FFF;
        fill: none;
">
        
        
        <svg xmlns="http://www.w3.org/2000/svg" class="role-diagram-draw-area" style="overflow: visible;"><g class="shapes-region" style="stroke: black; fill: none;"><g class="composite-shape"><path class="real" d=" M72,75 L122,75 L122,125 L72,125 Z" style="stroke-width: 1; stroke: rgb(0, 0, 0); fill: none; fill-opacity: 1;"/></g><g class="arrow-line"><path class="connection real" stroke-dasharray="" d="  M97,125 L97,173" style="stroke: rgb(0, 0, 0); stroke-width: 1; fill: none; fill-opacity: 1;"/><g stroke="#000" transform="matrix(-1.8369701987210297e-16,-1,1,-1.8369701987210297e-16,97,174.99999999999997)" style="stroke: rgb(0, 0, 0); stroke-width: 1;"><path d=" M10.93,-3.29 Q4.96,-0.45 0,0 Q4.96,0.45 10.93,3.29"/></g></g><g class="composite-shape"><path class="real" d=" M72,175 L122,175 L122,225 L72,225 Z" style="stroke-width: 1; stroke: rgb(0, 0, 0); fill: none; fill-opacity: 1;"/></g><g class="composite-shape"><path class="real" d=" M172,25 L222,25 L222,75 L172,75 Z" style="stroke-width: 1; stroke: rgb(0, 0, 0); fill: none; fill-opacity: 1;"/></g><g class="arrow-line"><path class="connection real" stroke-dasharray="" d="  M42,51 L170,51" style="stroke: rgb(0, 0, 0); stroke-width: 1; fill: none; fill-opacity: 1;"/><g stroke="#000" transform="matrix(-1,1.2246467991473532e-16,-1.2246467991473532e-16,-1,172,50.99999999999999)" style="stroke: rgb(0, 0, 0); stroke-width: 1;"><path d=" M10.93,-3.29 Q4.96,-0.45 0,0 Q4.96,0.45 10.93,3.29"/></g></g><g class="arrow-line"><path class="connection real" stroke-dasharray="" d="  M97,51 L97,73" style="stroke: rgb(0, 0, 0); stroke-width: 1; fill: none; fill-opacity: 1;"/><g stroke="#000" transform="matrix(-1.8369701987210297e-16,-1,1,-1.8369701987210297e-16,97,74.99999999999999)" style="stroke: rgb(0, 0, 0); stroke-width: 1;"><path d=" M10.93,-3.29 Q4.96,-0.45 0,0 Q4.96,0.45 10.93,3.29"/></g></g><g class="composite-shape"><path class="real" d=" M172,125 L222,125 L222,175 L172,175 Z" style="stroke-width: 1; stroke: rgb(0, 0, 0); fill: none; fill-opacity: 1;"/></g><g class="composite-shape"><path class="real" d=" M172,225 L222,225 L222,275 L172,275 Z" style="stroke-width: 1; stroke: rgb(0, 0, 0); fill: none; fill-opacity: 1;"/></g><g class="arrow-line"><path class="connection real" stroke-dasharray="" d="  M97,225 L97,250" style="stroke: rgb(0, 0, 0); stroke-width: 1; fill: none; fill-opacity: 1;"/></g><g class="arrow-line"><path class="connection real" stroke-dasharray="" d="  M97,250 L170,250" style="stroke: rgb(0, 0, 0); stroke-width: 1; fill: none; fill-opacity: 1;"/><g stroke="#000" transform="matrix(-1,1.2246467991473532e-16,-1.2246467991473532e-16,-1,171.99999999999997,250.00000000000003)" style="stroke: rgb(0, 0, 0); stroke-width: 1;"><path d=" M10.93,-3.29 Q4.96,-0.45 0,0 Q4.96,0.45 10.93,3.29"/></g></g><g class="arrow-line"><path class="connection real" stroke-dasharray="" d="  M97,150 L170,150" style="stroke: rgb(0, 0, 0); stroke-width: 1; fill: none; fill-opacity: 1;"/><g stroke="#000" transform="matrix(-1,1.2246467991473532e-16,-1.2246467991473532e-16,-1,171.99999999999997,150.00000000000003)" style="stroke: rgb(0, 0, 0); stroke-width: 1;"><path d=" M10.93,-3.29 Q4.96,-0.45 0,0 Q4.96,0.45 10.93,3.29"/></g></g><g class="composite-shape"><g class="real" style="stroke-width: 1; stroke: rgb(0, 0, 0); fill: none; fill-opacity: 1;"><path d=" M272,150 C272,136.19 283.19,125 297,125 C310.81,125 322,136.19 322,150 C322,163.81 310.81,175 297,175 C283.19,175 272,163.81 272,150 Z"/><path d=" M279.2,132.2 L314.8,167.8" style="fill: none;"/><path d=" M314.8,132.2 L279.2,167.8" style="fill: none;"/><path d=" M267,150 L272,150" style="fill: none;"/><path d=" M322,150 L327,150" style="fill: none;"/></g></g><g class="arrow-line"><path class="connection real" stroke-dasharray="" d="  M222,150 L265,150" style="stroke: rgb(0, 0, 0); stroke-width: 1; fill: none; fill-opacity: 1;"/><g stroke="#000" transform="matrix(-1,1.2246467991473532e-16,-1.2246467991473532e-16,-1,267,150.00000000000003)" style="stroke: rgb(0, 0, 0); stroke-width: 1;"><path d=" M10.93,-3.29 Q4.96,-0.45 0,0 Q4.96,0.45 10.93,3.29"/></g></g><g class="arrow-line"><path class="connection real" stroke-dasharray="" d="  M222,250 L297,250" style="stroke: rgb(0, 0, 0); stroke-width: 1; fill: none; fill-opacity: 1;"/></g><g class="arrow-line"><path class="connection real" stroke-dasharray="" d="  M297,250 L297,177" style="stroke: rgb(0, 0, 0); stroke-width: 1; fill: none; fill-opacity: 1;"/><g stroke="#000" transform="matrix(3.061616997868383e-16,1,-1,3.061616997868383e-16,297,175)" style="stroke: rgb(0, 0, 0); stroke-width: 1;"><path d=" M10.93,-3.29 Q4.96,-0.45 0,0 Q4.96,0.45 10.93,3.29"/></g></g><g class="arrow-line"><path class="connection real" stroke-dasharray="" d="  M297,50 L297,123" style="stroke: rgb(0, 0, 0); stroke-width: 1; fill: none; fill-opacity: 1;"/><g stroke="#000" transform="matrix(-1.8369701987210297e-16,-1,1,-1.8369701987210297e-16,297,125)" style="stroke: rgb(0, 0, 0); stroke-width: 1;"><path d=" M10.93,-3.29 Q4.96,-0.45 0,0 Q4.96,0.45 10.93,3.29"/></g></g><g class="arrow-line"><path class="connection real" stroke-dasharray="" d="  M222,50 L297,50" style="stroke: rgb(0, 0, 0); stroke-width: 1; fill: none; fill-opacity: 1;"/></g><g class="composite-shape"><g class="real" style="stroke-width: 1; stroke: rgb(0, 0, 0); fill: none; fill-opacity: 1;"><path d=" M372,150 C372,136.19 383.19,125 397,125 C410.81,125 422,136.19 422,150 C422,163.81 410.81,175 397,175 C383.19,175 372,163.81 372,150 Z"/><path d=" M379.2,132.2 L414.8,167.8" style="fill: none;"/><path d=" M414.8,132.2 L379.2,167.8" style="fill: none;"/><path d=" M367,150 L372,150" style="fill: none;"/><path d=" M422,150 L427,150" style="fill: none;"/></g></g><g class="arrow-line"><path class="connection real" stroke-dasharray="" d="  M327,150 L365,150" style="stroke: rgb(0, 0, 0); stroke-width: 1; fill: none; fill-opacity: 1;"/><g stroke="#000" transform="matrix(-1,1.2246467991473532e-16,-1.2246467991473532e-16,-1,367,150)" style="stroke: rgb(0, 0, 0); stroke-width: 1;"><path d=" M10.93,-3.29 Q4.96,-0.45 0,0 Q4.96,0.45 10.93,3.29"/></g></g><g class="composite-shape"><path class="real" d=" M472,125 L522,125 L522,175 L472,175 Z" style="stroke-width: 1; stroke: rgb(0, 0, 0); fill: none; fill-opacity: 1;"/></g><g class="composite-shape"><path class="real" d=" M572,75 L622,75 L622,125 L572,125 Z" style="stroke-width: 1; stroke: rgb(0, 0, 0); fill: none; fill-opacity: 1;"/></g><g class="composite-shape"><path class="real" d=" M572,175 L622,175 L622,225 L572,225 Z" style="stroke-width: 1; stroke: rgb(0, 0, 0); fill: none; fill-opacity: 1;"/></g><g class="composite-shape"><path class="real" d=" M472,225 L522,225 L522,275 L472,275 Z" style="stroke-width: 1; stroke: rgb(0, 0, 0); fill: none; fill-opacity: 1;"/></g><g class="arrow-line"><path class="connection real" stroke-dasharray="" d="  M472,150 L429,150" style="stroke: rgb(0, 0, 0); stroke-width: 1; fill: none; fill-opacity: 1;"/><g stroke="#000" transform="matrix(1,-2.4492935982947064e-16,2.4492935982947064e-16,1,427,150)" style="stroke: rgb(0, 0, 0); stroke-width: 1;"><path d=" M10.93,-3.29 Q4.96,-0.45 0,0 Q4.96,0.45 10.93,3.29"/></g></g><g class="arrow-line"><path class="connection real" stroke-dasharray="" d="  M397,250 L397,177" style="stroke: rgb(0, 0, 0); stroke-width: 1; fill: none; fill-opacity: 1;"/><g stroke="#000" transform="matrix(3.061616997868383e-16,1,-1,3.061616997868383e-16,397,175)" style="stroke: rgb(0, 0, 0); stroke-width: 1;"><path d=" M10.93,-3.29 Q4.96,-0.45 0,0 Q4.96,0.45 10.93,3.29"/></g></g><g class="arrow-line"><path class="connection real" stroke-dasharray="" d="  M397,250 L472,250" style="stroke: rgb(0, 0, 0); stroke-width: 1; fill: none; fill-opacity: 1;"/></g><g class="arrow-line"><path class="connection real" stroke-dasharray="" d="  M597,225 L597,250" style="stroke: rgb(0, 0, 0); stroke-width: 1; fill: none; fill-opacity: 1;"/></g><g class="arrow-line"><path class="connection real" stroke-dasharray="" d="  M597,250 L524,250" style="stroke: rgb(0, 0, 0); stroke-width: 1; fill: none; fill-opacity: 1;"/><g stroke="#000" transform="matrix(1,-2.4492935982947064e-16,2.4492935982947064e-16,1,522,250)" style="stroke: rgb(0, 0, 0); stroke-width: 1;"><path d=" M10.93,-3.29 Q4.96,-0.45 0,0 Q4.96,0.45 10.93,3.29"/></g></g><g class="arrow-line"><path class="connection real" stroke-dasharray="" d="  M597,125 L597,173" style="stroke: rgb(0, 0, 0); stroke-width: 1; fill: none; fill-opacity: 1;"/><g stroke="#000" transform="matrix(-1.8369701987210297e-16,-1,1,-1.8369701987210297e-16,597,175)" style="stroke: rgb(0, 0, 0); stroke-width: 1;"><path d=" M10.93,-3.29 Q4.96,-0.45 0,0 Q4.96,0.45 10.93,3.29"/></g></g><g class="arrow-line"><path class="connection real" stroke-dasharray="" d="  M597,150 L524,150" style="stroke: rgb(0, 0, 0); stroke-width: 1; fill: none; fill-opacity: 1;"/><g stroke="#000" transform="matrix(1,-2.4492935982947064e-16,2.4492935982947064e-16,1,522,150)" style="stroke: rgb(0, 0, 0); stroke-width: 1;"><path d=" M10.93,-3.29 Q4.96,-0.45 0,0 Q4.96,0.45 10.93,3.29"/></g></g><g class="arrow-line"><path class="connection real" stroke-dasharray="" d="  M397,50 L397,125" style="stroke: rgb(0, 0, 0); stroke-width: 1; fill: none; fill-opacity: 1;"/></g><g class="arrow-line"><path class="connection real" stroke-dasharray="" d="  M397,50 L657,50" style="stroke: rgb(0, 0, 0); stroke-width: 1; fill: none; fill-opacity: 1;"/><g stroke="#000" transform="matrix(-1,1.2246467991473532e-16,-1.2246467991473532e-16,-1,659,49.99999999999999)" style="stroke: rgb(0, 0, 0); stroke-width: 1;"><path d=" M10.93,-3.29 Q4.96,-0.45 0,0 Q4.96,0.45 10.93,3.29"/></g></g><g class="arrow-line"><path class="connection real" stroke-dasharray="" d="  M597,50 L597,73" style="stroke: rgb(0, 0, 0); stroke-width: 1; fill: none; fill-opacity: 1;"/><g stroke="#000" transform="matrix(-1.8369701987210297e-16,-1,1,-1.8369701987210297e-16,597,75)" style="stroke: rgb(0, 0, 0); stroke-width: 1;"><path d=" M10.93,-3.29 Q4.96,-0.45 0,0 Q4.96,0.45 10.93,3.29"/></g></g><g/></g><g/><g/><g/></svg>
        <svg xmlns="http://www.w3.org/2000/svg" xmlns:xlink="http://www.w3.org/1999/xlink" width="700" height="300" style="width:700px;height:300px;font-family:Asana-Math, Asana;background:#FFF;"><g><g><g><g transform="matrix(1,0,0,1,84.3828125,91)"><path transform="matrix(0.0105,0,0,-0.0105,0,0)" d="M95 0L343 0C359 0 375 0 391 2C532 18 666 149 666 342C666 462 612 582 513 647C449 689 395 694 341 694L95 694ZM182 56L182 638L325 638C493 638 579 502 579 341C579 272 562 203 520 148C451 57 357 56 325 56ZM756 226C756 102 843 -11 974 -11C1037 -11 1089 11 1132 40L1126 106C1082 74 1037 51 974 51C898 51 830 117 826 220L1136 220L1136 249C1127 420 1029 461 958 461C852 461 756 360 756 226ZM831 275C842 324 882 399 958 399C987 399 1062 386 1079 275ZM1247 0L1322 0L1322 722L1247 722ZM1449 113C1449 67 1479 -11 1563 -11C1673 -11 1728 34 1729 35L1729 0L1805 0L1805 305C1800 389 1734 461 1639 461C1576 461 1530 445 1482 417L1488 350C1521 373 1563 401 1638 401C1651 401 1677 400 1701 371C1726 341 1726 307 1727 279L1727 245C1624 244 1449 219 1449 113ZM1522 114C1522 177 1655 192 1727 193L1727 130C1727 65 1658 51 1615 51C1561 51 1522 78 1522 114ZM1871 445L2058 18C2062 10 2063 6 2063 1C2063 -3 2062 -8 2059 -15C2016 -119 2008 -149 1966 -149C1949 -149 1927 -143 1893 -132L1898 -197C1922 -203 1952 -205 1971 -205C2017 -205 2046 -182 2086 -90L2303 445L2228 445C2162 281 2097 118 2095 50C2086 107 2086 134 1950 445Z" stroke="rgb(0,0,0)" stroke-opacity="1" stroke-width="8" fill="rgb(0,0,0)" fill-opacity="1"></path></g></g></g><g><g><g transform="matrix(1,0,0,1,74.5,112)"><path transform="matrix(0.0105,0,0,-0.0105,0,0)" d="M35 623L177 623L295 624L295 0L384 0L384 624L501 623L643 623L643 689L35 689ZM1040 34C1115 -7 1176 -11 1210 -11C1344 -11 1373 72 1373 127C1373 192 1327 234 1286 252C1224 280 1117 267 1117 340C1117 365 1132 401 1201 401C1273 401 1305 383 1345 364L1356 430C1301 453 1266 461 1210 461C1074 461 1046 382 1046 329C1046 259 1106 220 1150 206C1181 196 1224 191 1246 184C1266 178 1302 158 1302 120C1302 93 1284 52 1209 52C1128 52 1080 86 1052 102ZM1430 226C1430 102 1517 -11 1648 -11C1711 -11 1763 11 1806 40L1800 106C1756 74 1711 51 1648 51C1572 51 1504 117 1500 220L1810 220L1810 249C1801 420 1703 461 1632 461C1526 461 1430 360 1430 226ZM1505 275C1516 324 1556 399 1632 399C1661 399 1736 386 1753 275ZM1875 223C1875 95 1969 -11 2092 -11C2161 -11 2210 11 2255 40L2250 107C2218 85 2171 53 2093 53C2009 53 1953 126 1953 223C1953 310 1997 397 2094 397C2173 397 2199 376 2238 351L2250 417C2189 452 2157 461 2095 461C1955 461 1875 339 1875 223ZM2314 221C2314 85 2419 -11 2533 -11C2647 -11 2753 84 2753 220C2753 345 2661 461 2533 461C2415 461 2314 357 2314 221ZM2392 231C2392 352 2469 399 2533 399C2597 399 2674 353 2674 231C2674 106 2600 53 2533 53C2467 53 2392 105 2392 231ZM2864 0L2942 0L2942 240C2942 314 2967 394 3044 394C3142 394 3142 319 3142 281L3142 0L3220 0L3220 288C3220 358 3211 455 3083 455C2995 455 2951 398 2937 380L2937 450L2864 450ZM3336 221C3336 102 3406 -11 3508 -11C3574 -11 3622 19 3656 52L3656 0L3735 0L3735 722L3659 722L3659 401C3624 429 3577 456 3514 456C3415 456 3336 353 3336 221ZM3414 222C3414 353 3501 394 3559 394L3561 394C3572 394 3604 393 3635 364C3653 347 3656 341 3656 325L3656 134C3656 103 3609 51 3549 51C3495 51 3414 90 3414 222ZM3845 34C3920 -7 3981 -11 4015 -11C4149 -11 4178 72 4178 127C4178 192 4132 234 4091 252C4029 280 3922 267 3922 340C3922 365 3937 401 4006 401C4078 401 4110 383 4150 364L4161 430C4106 453 4071 461 4015 461C3879 461 3851 382 3851 329C3851 259 3911 220 3955 206C3986 196 4029 191 4051 184C4071 178 4107 158 4107 120C4107 93 4089 52 4014 52C3933 52 3885 86 3857 102Z" stroke="rgb(0,0,0)" stroke-opacity="1" stroke-width="8" fill="rgb(0,0,0)" fill-opacity="1"></path></g></g></g></g><g><g><g><g transform="matrix(1,0,0,1,84.3828125,191)"><path transform="matrix(0.0105,0,0,-0.0105,0,0)" d="M95 0L343 0C359 0 375 0 391 2C532 18 666 149 666 342C666 462 612 582 513 647C449 689 395 694 341 694L95 694ZM182 56L182 638L325 638C493 638 579 502 579 341C579 272 562 203 520 148C451 57 357 56 325 56ZM756 226C756 102 843 -11 974 -11C1037 -11 1089 11 1132 40L1126 106C1082 74 1037 51 974 51C898 51 830 117 826 220L1136 220L1136 249C1127 420 1029 461 958 461C852 461 756 360 756 226ZM831 275C842 324 882 399 958 399C987 399 1062 386 1079 275ZM1247 0L1322 0L1322 722L1247 722ZM1449 113C1449 67 1479 -11 1563 -11C1673 -11 1728 34 1729 35L1729 0L1805 0L1805 305C1800 389 1734 461 1639 461C1576 461 1530 445 1482 417L1488 350C1521 373 1563 401 1638 401C1651 401 1677 400 1701 371C1726 341 1726 307 1727 279L1727 245C1624 244 1449 219 1449 113ZM1522 114C1522 177 1655 192 1727 193L1727 130C1727 65 1658 51 1615 51C1561 51 1522 78 1522 114ZM1871 445L2058 18C2062 10 2063 6 2063 1C2063 -3 2062 -8 2059 -15C2016 -119 2008 -149 1966 -149C1949 -149 1927 -143 1893 -132L1898 -197C1922 -203 1952 -205 1971 -205C2017 -205 2046 -182 2086 -90L2303 445L2228 445C2162 281 2097 118 2095 50C2086 107 2086 134 1950 445Z" stroke="rgb(0,0,0)" stroke-opacity="1" stroke-width="8" fill="rgb(0,0,0)" fill-opacity="1"></path></g></g></g><g><g><g transform="matrix(1,0,0,1,74.5,212)"><path transform="matrix(0.0105,0,0,-0.0105,0,0)" d="M35 623L177 623L295 624L295 0L384 0L384 624L501 623L643 623L643 689L35 689ZM1040 34C1115 -7 1176 -11 1210 -11C1344 -11 1373 72 1373 127C1373 192 1327 234 1286 252C1224 280 1117 267 1117 340C1117 365 1132 401 1201 401C1273 401 1305 383 1345 364L1356 430C1301 453 1266 461 1210 461C1074 461 1046 382 1046 329C1046 259 1106 220 1150 206C1181 196 1224 191 1246 184C1266 178 1302 158 1302 120C1302 93 1284 52 1209 52C1128 52 1080 86 1052 102ZM1430 226C1430 102 1517 -11 1648 -11C1711 -11 1763 11 1806 40L1800 106C1756 74 1711 51 1648 51C1572 51 1504 117 1500 220L1810 220L1810 249C1801 420 1703 461 1632 461C1526 461 1430 360 1430 226ZM1505 275C1516 324 1556 399 1632 399C1661 399 1736 386 1753 275ZM1875 223C1875 95 1969 -11 2092 -11C2161 -11 2210 11 2255 40L2250 107C2218 85 2171 53 2093 53C2009 53 1953 126 1953 223C1953 310 1997 397 2094 397C2173 397 2199 376 2238 351L2250 417C2189 452 2157 461 2095 461C1955 461 1875 339 1875 223ZM2314 221C2314 85 2419 -11 2533 -11C2647 -11 2753 84 2753 220C2753 345 2661 461 2533 461C2415 461 2314 357 2314 221ZM2392 231C2392 352 2469 399 2533 399C2597 399 2674 353 2674 231C2674 106 2600 53 2533 53C2467 53 2392 105 2392 231ZM2864 0L2942 0L2942 240C2942 314 2967 394 3044 394C3142 394 3142 319 3142 281L3142 0L3220 0L3220 288C3220 358 3211 455 3083 455C2995 455 2951 398 2937 380L2937 450L2864 450ZM3336 221C3336 102 3406 -11 3508 -11C3574 -11 3622 19 3656 52L3656 0L3735 0L3735 722L3659 722L3659 401C3624 429 3577 456 3514 456C3415 456 3336 353 3336 221ZM3414 222C3414 353 3501 394 3559 394L3561 394C3572 394 3604 393 3635 364C3653 347 3656 341 3656 325L3656 134C3656 103 3609 51 3549 51C3495 51 3414 90 3414 222ZM3845 34C3920 -7 3981 -11 4015 -11C4149 -11 4178 72 4178 127C4178 192 4132 234 4091 252C4029 280 3922 267 3922 340C3922 365 3937 401 4006 401C4078 401 4110 383 4150 364L4161 430C4106 453 4071 461 4015 461C3879 461 3851 382 3851 329C3851 259 3911 220 3955 206C3986 196 4029 191 4051 184C4071 178 4107 158 4107 120C4107 93 4089 52 4014 52C3933 52 3885 86 3857 102Z" stroke="rgb(0,0,0)" stroke-opacity="1" stroke-width="8" fill="rgb(0,0,0)" fill-opacity="1"></path></g></g></g></g><g><g><g><text x="42.5" y="36.5" style="white-space:pre;stroke:none;fill:rgb(0,0,0);fill-opacity:1;font-size:10.5px;font-family:Arial, Helvetica, sans-serif;font-weight:400;font-style:normal;dominant-baseline:text-before-edge;text-decoration:rgb(0, 0, 0);">e*(t)</text></g></g></g><g><g><g><text x="185.5" y="45.5" style="white-space:pre;stroke:none;fill:rgb(0,0,0);fill-opacity:1;font-size:10.5px;font-family:Arial, Helvetica, sans-serif;font-weight:400;font-style:normal;dominant-baseline:text-before-edge;text-decoration:rgb(0, 0, 0);">1899</text></g></g></g><g><g><g><text x="183.5" y="145.5" style="white-space:pre;stroke:none;fill:rgb(0,0,0);fill-opacity:1;font-size:10.5px;font-family:Arial, Helvetica, sans-serif;font-weight:400;font-style:normal;dominant-baseline:text-before-edge;text-decoration:rgb(0, 0, 0);">-3761</text></g></g></g><g><g><g><text x="183.5" y="245.5" style="white-space:pre;stroke:none;fill:rgb(0,0,0);fill-opacity:1;font-size:10.5px;font-family:Arial, Helvetica, sans-serif;font-weight:400;font-style:normal;dominant-baseline:text-before-edge;text-decoration:rgb(0, 0, 0);">-1861</text></g></g></g><g><g><g><text x="285.8046875" y="174.5" style="white-space:pre;stroke:none;fill:rgb(0,0,0);fill-opacity:1;font-size:10.5px;font-family:Arial, Helvetica, sans-serif;font-weight:400;font-style:normal;dominant-baseline:text-before-edge;text-decoration:rgb(0, 0, 0);">+</text></g></g></g><g><g><g><text x="264.8046875" y="150.5" style="white-space:pre;stroke:none;fill:rgb(0,0,0);fill-opacity:1;font-size:10.5px;font-family:Arial, Helvetica, sans-serif;font-weight:400;font-style:normal;dominant-baseline:text-before-edge;text-decoration:rgb(0, 0, 0);">+</text></g></g></g><g><g><g><text x="285.8046875" y="114.5" style="white-space:pre;stroke:none;fill:rgb(0,0,0);fill-opacity:1;font-size:10.5px;font-family:Arial, Helvetica, sans-serif;font-weight:400;font-style:normal;dominant-baseline:text-before-edge;text-decoration:rgb(0, 0, 0);">+</text></g></g></g><g><g><g><text x="624.5" y="35.5" style="white-space:pre;stroke:none;fill:rgb(0,0,0);fill-opacity:1;font-size:10.5px;font-family:Arial, Helvetica, sans-serif;font-weight:400;font-style:normal;dominant-baseline:text-before-edge;text-decoration:rgb(0, 0, 0);">x*(t)</text></g></g></g><g><g><g><text x="484.5" y="145.5" style="white-space:pre;stroke:none;fill:rgb(0,0,0);fill-opacity:1;font-size:10.5px;font-family:Arial, Helvetica, sans-serif;font-weight:400;font-style:normal;dominant-baseline:text-before-edge;text-decoration:rgb(0, 0, 0);">1.908</text></g></g></g><g><g><g><text x="479.5" y="244.5" style="white-space:pre;stroke:none;fill:rgb(0,0,0);fill-opacity:1;font-size:10.5px;font-family:Arial, Helvetica, sans-serif;font-weight:400;font-style:normal;dominant-baseline:text-before-edge;text-decoration:rgb(0, 0, 0);">-0.9075</text></g></g></g><g><g><g><text x="383" y="174.296875" style="white-space:pre;stroke:none;fill:rgb(0,0,0);fill-opacity:1;font-size:10.5px;font-family:Arial, Helvetica, sans-serif;font-weight:400;font-style:normal;dominant-baseline:text-before-edge;text-decoration:rgb(0, 0, 0);">+</text></g></g></g><g><g><g><text x="362.8046875" y="150.5" style="white-space:pre;stroke:none;fill:rgb(0,0,0);fill-opacity:1;font-size:10.5px;font-family:Arial, Helvetica, sans-serif;font-weight:400;font-style:normal;dominant-baseline:text-before-edge;text-decoration:rgb(0, 0, 0);">+</text></g></g></g><g><g><g><text x="422.8046875" y="150.5" style="white-space:pre;stroke:none;fill:rgb(0,0,0);fill-opacity:1;font-size:10.5px;font-family:Arial, Helvetica, sans-serif;font-weight:400;font-style:normal;dominant-baseline:text-before-edge;text-decoration:rgb(0, 0, 0);">+</text></g></g></g><g><g><g><g transform="matrix(1,0,0,1,584.3828125,91)"><path transform="matrix(0.0105,0,0,-0.0105,0,0)" d="M95 0L343 0C359 0 375 0 391 2C532 18 666 149 666 342C666 462 612 582 513 647C449 689 395 694 341 694L95 694ZM182 56L182 638L325 638C493 638 579 502 579 341C579 272 562 203 520 148C451 57 357 56 325 56ZM756 226C756 102 843 -11 974 -11C1037 -11 1089 11 1132 40L1126 106C1082 74 1037 51 974 51C898 51 830 117 826 220L1136 220L1136 249C1127 420 1029 461 958 461C852 461 756 360 756 226ZM831 275C842 324 882 399 958 399C987 399 1062 386 1079 275ZM1247 0L1322 0L1322 722L1247 722ZM1449 113C1449 67 1479 -11 1563 -11C1673 -11 1728 34 1729 35L1729 0L1805 0L1805 305C1800 389 1734 461 1639 461C1576 461 1530 445 1482 417L1488 350C1521 373 1563 401 1638 401C1651 401 1677 400 1701 371C1726 341 1726 307 1727 279L1727 245C1624 244 1449 219 1449 113ZM1522 114C1522 177 1655 192 1727 193L1727 130C1727 65 1658 51 1615 51C1561 51 1522 78 1522 114ZM1871 445L2058 18C2062 10 2063 6 2063 1C2063 -3 2062 -8 2059 -15C2016 -119 2008 -149 1966 -149C1949 -149 1927 -143 1893 -132L1898 -197C1922 -203 1952 -205 1971 -205C2017 -205 2046 -182 2086 -90L2303 445L2228 445C2162 281 2097 118 2095 50C2086 107 2086 134 1950 445Z" stroke="rgb(0,0,0)" stroke-opacity="1" stroke-width="8" fill="rgb(0,0,0)" fill-opacity="1"></path></g></g></g><g><g><g transform="matrix(1,0,0,1,574.5,112)"><path transform="matrix(0.0105,0,0,-0.0105,0,0)" d="M35 623L177 623L295 624L295 0L384 0L384 624L501 623L643 623L643 689L35 689ZM1040 34C1115 -7 1176 -11 1210 -11C1344 -11 1373 72 1373 127C1373 192 1327 234 1286 252C1224 280 1117 267 1117 340C1117 365 1132 401 1201 401C1273 401 1305 383 1345 364L1356 430C1301 453 1266 461 1210 461C1074 461 1046 382 1046 329C1046 259 1106 220 1150 206C1181 196 1224 191 1246 184C1266 178 1302 158 1302 120C1302 93 1284 52 1209 52C1128 52 1080 86 1052 102ZM1430 226C1430 102 1517 -11 1648 -11C1711 -11 1763 11 1806 40L1800 106C1756 74 1711 51 1648 51C1572 51 1504 117 1500 220L1810 220L1810 249C1801 420 1703 461 1632 461C1526 461 1430 360 1430 226ZM1505 275C1516 324 1556 399 1632 399C1661 399 1736 386 1753 275ZM1875 223C1875 95 1969 -11 2092 -11C2161 -11 2210 11 2255 40L2250 107C2218 85 2171 53 2093 53C2009 53 1953 126 1953 223C1953 310 1997 397 2094 397C2173 397 2199 376 2238 351L2250 417C2189 452 2157 461 2095 461C1955 461 1875 339 1875 223ZM2314 221C2314 85 2419 -11 2533 -11C2647 -11 2753 84 2753 220C2753 345 2661 461 2533 461C2415 461 2314 357 2314 221ZM2392 231C2392 352 2469 399 2533 399C2597 399 2674 353 2674 231C2674 106 2600 53 2533 53C2467 53 2392 105 2392 231ZM2864 0L2942 0L2942 240C2942 314 2967 394 3044 394C3142 394 3142 319 3142 281L3142 0L3220 0L3220 288C3220 358 3211 455 3083 455C2995 455 2951 398 2937 380L2937 450L2864 450ZM3336 221C3336 102 3406 -11 3508 -11C3574 -11 3622 19 3656 52L3656 0L3735 0L3735 722L3659 722L3659 401C3624 429 3577 456 3514 456C3415 456 3336 353 3336 221ZM3414 222C3414 353 3501 394 3559 394L3561 394C3572 394 3604 393 3635 364C3653 347 3656 341 3656 325L3656 134C3656 103 3609 51 3549 51C3495 51 3414 90 3414 222ZM3845 34C3920 -7 3981 -11 4015 -11C4149 -11 4178 72 4178 127C4178 192 4132 234 4091 252C4029 280 3922 267 3922 340C3922 365 3937 401 4006 401C4078 401 4110 383 4150 364L4161 430C4106 453 4071 461 4015 461C3879 461 3851 382 3851 329C3851 259 3911 220 3955 206C3986 196 4029 191 4051 184C4071 178 4107 158 4107 120C4107 93 4089 52 4014 52C3933 52 3885 86 3857 102Z" stroke="rgb(0,0,0)" stroke-opacity="1" stroke-width="8" fill="rgb(0,0,0)" fill-opacity="1"></path></g></g></g></g><g><g><g><g transform="matrix(1,0,0,1,584.3828125,191)"><path transform="matrix(0.0105,0,0,-0.0105,0,0)" d="M95 0L343 0C359 0 375 0 391 2C532 18 666 149 666 342C666 462 612 582 513 647C449 689 395 694 341 694L95 694ZM182 56L182 638L325 638C493 638 579 502 579 341C579 272 562 203 520 148C451 57 357 56 325 56ZM756 226C756 102 843 -11 974 -11C1037 -11 1089 11 1132 40L1126 106C1082 74 1037 51 974 51C898 51 830 117 826 220L1136 220L1136 249C1127 420 1029 461 958 461C852 461 756 360 756 226ZM831 275C842 324 882 399 958 399C987 399 1062 386 1079 275ZM1247 0L1322 0L1322 722L1247 722ZM1449 113C1449 67 1479 -11 1563 -11C1673 -11 1728 34 1729 35L1729 0L1805 0L1805 305C1800 389 1734 461 1639 461C1576 461 1530 445 1482 417L1488 350C1521 373 1563 401 1638 401C1651 401 1677 400 1701 371C1726 341 1726 307 1727 279L1727 245C1624 244 1449 219 1449 113ZM1522 114C1522 177 1655 192 1727 193L1727 130C1727 65 1658 51 1615 51C1561 51 1522 78 1522 114ZM1871 445L2058 18C2062 10 2063 6 2063 1C2063 -3 2062 -8 2059 -15C2016 -119 2008 -149 1966 -149C1949 -149 1927 -143 1893 -132L1898 -197C1922 -203 1952 -205 1971 -205C2017 -205 2046 -182 2086 -90L2303 445L2228 445C2162 281 2097 118 2095 50C2086 107 2086 134 1950 445Z" stroke="rgb(0,0,0)" stroke-opacity="1" stroke-width="8" fill="rgb(0,0,0)" fill-opacity="1"></path></g></g></g><g><g><g transform="matrix(1,0,0,1,574.5,212)"><path transform="matrix(0.0105,0,0,-0.0105,0,0)" d="M35 623L177 623L295 624L295 0L384 0L384 624L501 623L643 623L643 689L35 689ZM1040 34C1115 -7 1176 -11 1210 -11C1344 -11 1373 72 1373 127C1373 192 1327 234 1286 252C1224 280 1117 267 1117 340C1117 365 1132 401 1201 401C1273 401 1305 383 1345 364L1356 430C1301 453 1266 461 1210 461C1074 461 1046 382 1046 329C1046 259 1106 220 1150 206C1181 196 1224 191 1246 184C1266 178 1302 158 1302 120C1302 93 1284 52 1209 52C1128 52 1080 86 1052 102ZM1430 226C1430 102 1517 -11 1648 -11C1711 -11 1763 11 1806 40L1800 106C1756 74 1711 51 1648 51C1572 51 1504 117 1500 220L1810 220L1810 249C1801 420 1703 461 1632 461C1526 461 1430 360 1430 226ZM1505 275C1516 324 1556 399 1632 399C1661 399 1736 386 1753 275ZM1875 223C1875 95 1969 -11 2092 -11C2161 -11 2210 11 2255 40L2250 107C2218 85 2171 53 2093 53C2009 53 1953 126 1953 223C1953 310 1997 397 2094 397C2173 397 2199 376 2238 351L2250 417C2189 452 2157 461 2095 461C1955 461 1875 339 1875 223ZM2314 221C2314 85 2419 -11 2533 -11C2647 -11 2753 84 2753 220C2753 345 2661 461 2533 461C2415 461 2314 357 2314 221ZM2392 231C2392 352 2469 399 2533 399C2597 399 2674 353 2674 231C2674 106 2600 53 2533 53C2467 53 2392 105 2392 231ZM2864 0L2942 0L2942 240C2942 314 2967 394 3044 394C3142 394 3142 319 3142 281L3142 0L3220 0L3220 288C3220 358 3211 455 3083 455C2995 455 2951 398 2937 380L2937 450L2864 450ZM3336 221C3336 102 3406 -11 3508 -11C3574 -11 3622 19 3656 52L3656 0L3735 0L3735 722L3659 722L3659 401C3624 429 3577 456 3514 456C3415 456 3336 353 3336 221ZM3414 222C3414 353 3501 394 3559 394L3561 394C3572 394 3604 393 3635 364C3653 347 3656 341 3656 325L3656 134C3656 103 3609 51 3549 51C3495 51 3414 90 3414 222ZM3845 34C3920 -7 3981 -11 4015 -11C4149 -11 4178 72 4178 127C4178 192 4132 234 4091 252C4029 280 3922 267 3922 340C3922 365 3937 401 4006 401C4078 401 4110 383 4150 364L4161 430C4106 453 4071 461 4015 461C3879 461 3851 382 3851 329C3851 259 3911 220 3955 206C3986 196 4029 191 4051 184C4071 178 4107 158 4107 120C4107 93 4089 52 4014 52C3933 52 3885 86 3857 102Z" stroke="rgb(0,0,0)" stroke-opacity="1" stroke-width="8" fill="rgb(0,0,0)" fill-opacity="1"></path></g></g></g></g></svg>
</svg>
